<svg id="visual" viewBox="0 0 900 600" width="900" height="600" xmlns="http://www.w3.org/2000/svg" xmlns:xlink="http://www.w3.org/1999/xlink" version="1.1"><rect x="0" y="0" width="900" height="600" fill="#001122"></rect><path d="M0 36L12.5 36.3C25 36.7 50 37.3 75 39.5C100 41.7 125 45.3 150 46.8C175 48.3 200 47.7 225 45.2C250 42.7 275 38.3 300 38.3C325 38.3 350 42.7 375 45C400 47.3 425 47.7 450 46.3C475 45 500 42 525 41.2C550 40.3 575 41.7 600 43.3C625 45 650 47 675 48.2C700 49.3 725 49.7 750 49.5C775 49.3 800 48.7 825 47.7C850 46.7 875 45.3 887.5 44.7L900 44L900 0L887.5 0C875 0 850 0 825 0C800 0 775 0 750 0C725 0 700 0 675 0C650 0 625 0 600 0C575 0 550 0 525 0C500 0 475 0 450 0C425 0 400 0 375 0C350 0 325 0 300 0C275 0 250 0 225 0C200 0 175 0 150 0C125 0 100 0 75 0C50 0 25 0 12.5 0L0 0Z" fill="#fa7268"></path><path d="M0 27L12.5 28.3C25 29.7 50 32.3 75 34.3C100 36.3 125 37.7 150 36.8C175 36 200 33 225 31.3C250 29.7 275 29.3 300 29C325 28.7 350 28.3 375 28.8C400 29.3 425 30.7 450 31.8C475 33 500 34 525 33.7C550 33.3 575 31.7 600 32.2C625 32.7 650 35.3 675 34.8C700 34.3 725 30.7 750 29C775 27.3 800 27.7 825 29.7C850 31.7 875 35.3 887.5 37.2L900 39L900 0L887.5 0C875 0 850 0 825 0C800 0 775 0 750 0C725 0 700 0 675 0C650 0 625 0 600 0C575 0 550 0 525 0C500 0 475 0 450 0C425 0 400 0 375 0C350 0 325 0 300 0C275 0 250 0 225 0C200 0 175 0 150 0C125 0 100 0 75 0C50 0 25 0 12.5 0L0 0Z" fill="#ef5f67"></path><path d="M0 20L12.5 20.8C25 21.7 50 23.3 75 23.8C100 24.3 125 23.7 150 24.3C175 25 200 27 225 27.5C250 28 275 27 300 27.2C325 27.3 350 28.7 375 29C400 29.3 425 28.7 450 27.2C475 25.7 500 23.3 525 23.2C550 23 575 25 600 25C625 25 650 23 675 23.2C700 23.3 725 25.7 750 25.5C775 25.3 800 22.7 825 21.8C850 21 875 22 887.5 22.5L900 23L900 0L887.5 0C875 0 850 0 825 0C800 0 775 0 750 0C725 0 700 0 675 0C650 0 625 0 600 0C575 0 550 0 525 0C500 0 475 0 450 0C425 0 400 0 375 0C350 0 325 0 300 0C275 0 250 0 225 0C200 0 175 0 150 0C125 0 100 0 75 0C50 0 25 0 12.5 0L0 0Z" fill="#e34c67"></path><path d="M0 12L12.5 13.5C25 15 50 18 75 19C100 20 125 19 150 17.7C175 16.3 200 14.7 225 14.8C250 15 275 17 300 17.3C325 17.7 350 16.3 375 15.3C400 14.3 425 13.7 450 13.3C475 13 500 13 525 14C550 15 575 17 600 17.7C625 18.3 650 17.7 675 18C700 18.3 725 19.7 750 19.8C775 20 800 19 825 18.2C850 17.3 875 16.7 887.5 16.3L900 16L900 0L887.5 0C875 0 850 0 825 0C800 0 775 0 750 0C725 0 700 0 675 0C650 0 625 0 600 0C575 0 550 0 525 0C500 0 475 0 450 0C425 0 400 0 375 0C350 0 325 0 300 0C275 0 250 0 225 0C200 0 175 0 150 0C125 0 100 0 75 0C50 0 25 0 12.5 0L0 0Z" fill="#d53867"></path><path d="M0 12L12.5 12C25 12 50 12 75 12C100 12 125 12 150 11.5C175 11 200 10 225 9.3C250 8.7 275 8.3 300 9.2C325 10 350 12 375 11.7C400 11.3 425 8.7 450 7C475 5.3 500 4.7 525 5.8C550 7 575 10 600 10.7C625 11.3 650 9.7 675 8.7C700 7.7 725 7.3 750 7.3C775 7.3 800 7.7 825 7.3C850 7 875 6 887.5 5.5L900 5L900 0L887.5 0C875 0 850 0 825 0C800 0 775 0 750 0C725 0 700 0 675 0C650 0 625 0 600 0C575 0 550 0 525 0C500 0 475 0 450 0C425 0 400 0 375 0C350 0 325 0 300 0C275 0 250 0 225 0C200 0 175 0 150 0C125 0 100 0 75 0C50 0 25 0 12.5 0L0 0Z" fill="#c62368"></path></svg>